<?xml version="1.0" encoding="UTF-8"?>
<svg width="37px" height="19px" viewBox="0 0 37 19" version="1.1" xmlns="http://www.w3.org/2000/svg" xmlns:xlink="http://www.w3.org/1999/xlink">
    <title>Path</title>
    <g id="Symbols" stroke="none" stroke-width="1" fill="none" fill-rule="evenodd">
        <g id="Item-card" transform="translate(-354.000000, -666.000000)" fill="#000000" fill-rule="nonzero">
            <g id="back-arrow" transform="translate(372.500000, 675.500000) rotate(-180.000000) translate(-372.500000, -675.500000) translate(354.000000, 666.000000)">
                <path d="M0.121286568,9.86404093 L7.91083573,18.836169 C8.09939034,19.0494958 8.42163224,19.0510263 8.60317627,18.8609744 C8.78769007,18.6678614 8.80122434,18.3133547 8.62605794,18.1104251 L1.61244038,10.028918 L36.513156,10.028918 C36.7820399,10.028918 37,9.79263295 37,9.50114263 C37,9.2096523 36.7820399,8.97336728 36.513156,8.97336728 L1.61244038,8.97336728 L8.62605794,0.891802066 C8.80137039,0.688872448 8.79056244,0.331251878 8.60317627,0.141252755 C8.41593615,-0.0487463699 8.11462855,-0.0534435705 7.91083573,0.166058193 L0.121286568,9.13824429 C-0.0638601217,9.38524315 -0.0151757436,9.68797509 0.121286568,9.86404093 Z" id="Path"></path>
            </g>
        </g>
    </g>
</svg>