<?xml version="1.0" encoding="UTF-8"?>
<svg width="31px" height="36px" viewBox="0 0 31 36" version="1.1" xmlns="http://www.w3.org/2000/svg" xmlns:xlink="http://www.w3.org/1999/xlink">
    <title>Shape</title>
    <g id="Symbols" stroke="none" stroke-width="1" fill="none" fill-rule="evenodd">
        <g id="Item-card" transform="translate(-447.000000, -655.000000)" fill="#FFFFFF" fill-rule="nonzero">
            <g id="noun_shopping_1820731" transform="translate(447.000000, 655.000000)">
                <path d="M27.4540728,12.75513 L24.660312,12.75513 L24.660312,8.42134063 C24.660312,3.79206566 20.5233969,0 15.4731369,0 C10.4228769,0 6.28596187,3.79206566 6.28596187,8.42134063 L6.28596187,12.75513 L3.49220104,12.75513 C1.55805893,12.75513 0,14.1833105 0,15.9562244 L0,32.7989056 C0,34.5718194 1.55805893,36 3.49220104,36 L27.507799,36 C29.4419411,36 31,34.5718194 31,32.7989056 L31,15.9562244 C30.9462738,14.1833105 29.3882149,12.75513 27.4540728,12.75513 Z M8.08695652,8.41048035 C8.08695652,4.4691204 11.3991674,1.28571429 15.5,1.28571429 C19.6008326,1.28571429 22.9130435,4.4691204 22.9130435,8.41048035 L22.9130435,12.8571429 L8.08695652,12.8571429 L8.08695652,8.41048035 Z M29.6521739,32.9667129 C29.6521739,33.9153953 28.7745197,34.7142857 27.7323054,34.7142857 L3.26769464,34.7142857 C2.22548028,34.7142857 1.34782609,33.9153953 1.34782609,32.9667129 L1.34782609,15.89043 C1.34782609,14.9417476 2.22548028,14.1428571 3.26769464,14.1428571 L6.12007078,14.1428571 L6.12007078,20.2843273 L7.7656724,20.2843273 L7.7656724,14.1428571 L23.2343276,14.1428571 L23.2343276,20.2843273 L24.8799292,20.2843273 L24.8799292,14.1428571 L27.7323054,14.1428571 C28.7745197,14.1428571 29.6521739,14.9417476 29.6521739,15.89043 L29.6521739,32.9667129 Z" id="Shape"></path>
            </g>
        </g>
    </g>
</svg>